<?xml version="1.0" encoding="UTF-8"?><svg id="uuid-a5cbf60f-56bc-404a-9666-975ddd2657dc" xmlns="http://www.w3.org/2000/svg" width="456" height="96" viewBox="0 0 456 96"><defs><style>.uuid-5a1196de-53ee-4ea4-9f72-b803273c6036{fill:#fff;}</style></defs><g id="uuid-5272b710-ae49-449a-93b4-e8ba1f87b6f6"><path class="uuid-5a1196de-53ee-4ea4-9f72-b803273c6036" d="M441.44,4.66v86.68H14.56V4.66h426.87M446.1,0H9.9v96h436.19V0h0Z"/></g><g id="uuid-b32e94df-d8d1-4750-a9b2-8d84bfbc4355"><path class="uuid-5a1196de-53ee-4ea4-9f72-b803273c6036" d="M16.85,48.15c0-15.68.9-26.51,3.5-31.93,3.05-6.43,10.15-9.14,17.94-9.14,7.22,0,14.22,2.26,17.49,8.01,1.92,3.27,2.93,8.23,3.5,15.57l-15.23,3.16c-.11-4.85-.34-8.35-1.02-10.49-.79-2.71-2.14-3.61-4.63-3.61-3.05,0-4.51,1.24-5.19,5.3-.68,3.72-.9,13.31-.9,23.01s.23,19.07.9,22.79c.68,4.4,2.37,5.42,5.3,5.42,3.16,0,4.63-1.58,5.3-5.3.45-2.48.68-6.66.68-15.01h-5.42v-11.96h20.31v43.55h-8.01l-1.24-6.32c-2.37,5.19-7.11,7.45-13.65,7.45-7.22,0-12.97-2.48-16.02-8.8-2.71-5.53-3.61-16.02-3.61-31.7h0Z"/><path class="uuid-5a1196de-53ee-4ea4-9f72-b803273c6036" d="M77.21,8.55h18.62l13.65,78.97h-14.89l-1.58-11.17h-13.09l-1.58,11.17h-14.89l13.76-78.97h0ZM81.27,66.32h10.38l-4.51-32.15-.56-4.63h-.23l-.56,4.63-4.51,32.15h0Z"/><path class="uuid-5a1196de-53ee-4ea4-9f72-b803273c6036" d="M114.66,8.55h15.34v78.97h-15.34V8.55Z"/><path class="uuid-5a1196de-53ee-4ea4-9f72-b803273c6036" d="M139.71,8.55h37.23v13.31h-22.68v17.15h16.58v13.09h-16.58v21.89h22.68v13.54h-37.23V8.55h0Z"/><path class="uuid-5a1196de-53ee-4ea4-9f72-b803273c6036" d="M184.27,8.55h16.7c19.07,0,25.72,5.64,25.72,20.87,0,8.57-1.92,14.89-8.12,18.16v.11c6.21,1.92,7.45,6.32,7.45,13.76,0,9.59,0,15.12.79,25.38v.68h-15.46c-.45-10.04-.45-17.04-.45-23.47,0-5.64-1.13-7.45-7.11-7.45h-4.51v30.91h-15.01V8.55ZM202.66,44.43c6.88,0,8.8-2.82,8.8-11.73,0-8.35-1.92-11.17-8.8-11.17h-3.39v22.9h3.39Z"/><path class="uuid-5a1196de-53ee-4ea4-9f72-b803273c6036" d="M234.02,48.04c0-15.57.9-26.4,3.5-31.82,2.93-6.09,9.93-9.14,17.94-9.14s15.12,3.05,17.94,9.14c2.6,5.42,3.61,16.25,3.61,31.82s-1.02,26.4-3.61,31.82c-2.82,6.09-9.93,9.14-17.94,9.14s-15.01-3.05-17.94-9.14c-2.6-5.42-3.5-16.25-3.5-31.82ZM255.46,76.36c2.93,0,4.51-1.24,5.19-5.3.56-3.72.79-13.31.79-23.01s-.23-19.29-.79-23.01c-.68-4.06-2.26-5.3-5.19-5.3s-4.4,1.24-5.08,5.3c-.68,3.72-.9,13.31-.9,23.01s.23,19.29.9,23.01c.68,4.06,2.14,5.3,5.08,5.3Z"/><path class="uuid-5a1196de-53ee-4ea4-9f72-b803273c6036" d="M285.47,8.55h36.89v13.31h-21.89v17.37h16.25v13.09h-16.25v35.2h-15.01V8.55h0Z"/><path class="uuid-5a1196de-53ee-4ea4-9f72-b803273c6036" d="M329.24,8.55h15.34v65.1h20.53v13.88h-35.88V8.55Z"/><path class="uuid-5a1196de-53ee-4ea4-9f72-b803273c6036" d="M371.32,8.55h15.34v78.97h-15.34V8.55Z"/><path class="uuid-5a1196de-53ee-4ea4-9f72-b803273c6036" d="M406.29,46.35l-13.65-37.79h15.8l7.11,23.24,7.11-23.24h15.79l-13.76,37.57,14.33,41.4h-16.13l-7.33-25.05-7.33,25.05h-16.25l14.33-41.18h0Z"/></g></svg>